<?xml version="1.0" encoding="UTF-8"?><svg xmlns="http://www.w3.org/2000/svg" xmlns:xlink="http://www.w3.org/1999/xlink" contentScriptType="text/ecmascript" width="375pt" zoomAndPan="magnify" contentStyleType="text/css" viewBox="0 0 375 374.999991" height="374.999991pt" preserveAspectRatio="xMidYMid meet" version="1.2"><defs/><g xml:id="surface1" id="surface1"><g clip-rule="nonzero"><path style=" stroke:none;fill-rule:nonzero;fill:rgb(1.179504%,2.749634%,11.759949%);fill-opacity:1;" d="M 187.488281 57.375 C 115.53125 57.375 56.988281 115.917969 56.988281 187.875 C 56.988281 259.832031 115.53125 318.375 187.488281 318.375 C 259.445312 318.375 317.988281 259.832031 317.988281 187.875 C 317.988281 115.917969 259.445312 57.375 187.488281 57.375 Z M 187.488281 57.375 "/></g><g clip-rule="nonzero"><path style=" stroke:none;fill-rule:nonzero;fill:rgb(78.819275%,9.408569%,29.019165%);fill-opacity:1;" d="M 187.144531 61.308594 C 256.75 61.308594 313.371094 117.925781 313.371094 187.53125 C 313.371094 257.136719 256.75 313.757812 187.144531 313.757812 C 117.539062 313.757812 60.917969 257.136719 60.917969 187.53125 C 60.917969 117.925781 117.539062 61.308594 187.144531 61.308594 M 187.144531 47.28125 C 109.683594 47.28125 46.894531 110.074219 46.894531 187.53125 C 46.894531 264.992188 109.683594 327.78125 187.144531 327.78125 C 264.605469 327.78125 327.394531 264.992188 327.394531 187.53125 C 327.394531 110.074219 264.605469 47.28125 187.144531 47.28125 Z M 187.144531 47.28125 "/></g><g clip-rule="nonzero"><path style=" stroke:none;fill-rule:nonzero;fill:rgb(78.819275%,9.408569%,29.019165%);fill-opacity:1;" d="M 131.390625 143.421875 C 131.390625 136.785156 136.789062 131.390625 143.421875 131.390625 L 186.859375 131.390625 C 193.492188 131.390625 198.890625 136.785156 198.890625 143.421875 L 198.890625 209.359375 C 198.890625 215.992188 193.492188 221.390625 186.859375 221.390625 L 143.421875 221.390625 C 136.789062 221.390625 131.390625 215.992188 131.390625 209.359375 Z M 143.421875 225.140625 L 186.859375 225.140625 C 195.5625 225.140625 202.640625 218.0625 202.640625 209.359375 L 202.640625 143.421875 C 202.640625 134.71875 195.5625 127.640625 186.859375 127.640625 L 143.421875 127.640625 C 134.71875 127.640625 127.640625 134.71875 127.640625 143.421875 L 127.640625 209.359375 C 127.640625 218.0625 134.71875 225.140625 143.421875 225.140625 "/></g><path style=" stroke:none;fill-rule:nonzero;fill:rgb(78.819275%,9.408569%,29.019165%);fill-opacity:1;" d="M 158.617188 209.429688 C 158.617188 211.855469 156.644531 213.828125 154.214844 213.828125 L 145.085938 213.828125 C 142.65625 213.828125 140.6875 211.855469 140.6875 209.429688 L 140.6875 200.8125 C 140.6875 198.386719 142.65625 196.410156 145.085938 196.410156 L 154.214844 196.410156 C 156.644531 196.410156 158.617188 198.386719 158.617188 200.8125 Z M 154.214844 192.660156 L 145.085938 192.660156 C 140.59375 192.660156 136.9375 196.316406 136.9375 200.8125 L 136.9375 209.429688 C 136.9375 213.921875 140.59375 217.578125 145.085938 217.578125 L 154.214844 217.578125 C 158.710938 217.578125 162.367188 213.921875 162.367188 209.429688 L 162.367188 200.8125 C 162.367188 196.316406 158.710938 192.660156 154.214844 192.660156 "/><path style=" stroke:none;fill-rule:nonzero;fill:rgb(78.819275%,9.408569%,29.019165%);fill-opacity:1;" d="M 153.820312 198.433594 L 149.652344 202.5 L 145.484375 198.433594 L 142.867188 201.117188 L 146.96875 205.121094 L 142.867188 209.125 L 145.484375 211.808594 L 149.652344 207.742188 L 153.820312 211.808594 L 156.4375 209.125 L 152.335938 205.121094 L 156.4375 201.117188 L 153.820312 198.433594 "/><path style=" stroke:none;fill-rule:nonzero;fill:rgb(78.819275%,9.408569%,29.019165%);fill-opacity:1;" d="M 158.617188 179.183594 C 158.617188 181.613281 156.644531 183.589844 154.214844 183.589844 L 145.085938 183.589844 C 142.65625 183.589844 140.6875 181.613281 140.6875 179.183594 L 140.6875 170.570312 C 140.6875 168.144531 142.65625 166.167969 145.085938 166.167969 L 154.214844 166.167969 C 156.644531 166.167969 158.617188 168.144531 158.617188 170.570312 Z M 154.214844 162.417969 L 145.085938 162.417969 C 140.59375 162.417969 136.9375 166.074219 136.9375 170.570312 L 136.9375 179.183594 C 136.9375 183.683594 140.59375 187.339844 145.085938 187.339844 L 154.214844 187.339844 C 158.710938 187.339844 162.367188 183.683594 162.367188 179.183594 L 162.367188 170.570312 C 162.367188 166.074219 158.710938 162.417969 154.214844 162.417969 "/><path style=" stroke:none;fill-rule:nonzero;fill:rgb(78.819275%,9.408569%,29.019165%);fill-opacity:1;" d="M 151.527344 167.316406 L 147.777344 167.316406 L 147.777344 173.003906 L 141.90625 173.003906 L 141.90625 176.753906 L 147.777344 176.753906 L 147.777344 182.4375 L 151.527344 182.4375 L 151.527344 176.753906 L 157.398438 176.753906 L 157.398438 173.003906 L 151.527344 173.003906 L 151.527344 167.316406 "/><path style=" stroke:none;fill-rule:nonzero;fill:rgb(78.819275%,9.408569%,29.019165%);fill-opacity:1;" d="M 189.597656 179.183594 C 189.597656 181.613281 187.621094 183.589844 185.195312 183.589844 L 176.066406 183.589844 C 173.636719 183.589844 171.660156 181.613281 171.660156 179.183594 L 171.660156 170.570312 C 171.660156 168.144531 173.636719 166.167969 176.066406 166.167969 L 185.195312 166.167969 C 187.621094 166.167969 189.597656 168.144531 189.597656 170.570312 Z M 185.195312 162.417969 L 176.066406 162.417969 C 171.566406 162.417969 167.910156 166.074219 167.910156 170.570312 L 167.910156 179.183594 C 167.910156 183.683594 171.566406 187.339844 176.066406 187.339844 L 185.195312 187.339844 C 189.6875 187.339844 193.347656 183.683594 193.347656 179.183594 L 193.347656 170.570312 C 193.347656 166.074219 189.6875 162.417969 185.195312 162.417969 "/><path style=" stroke:none;fill-rule:nonzero;fill:rgb(78.819275%,9.408569%,29.019165%);fill-opacity:1;" d="M 174.4375 176.753906 L 186.824219 176.753906 L 186.824219 173.003906 L 174.4375 173.003906 L 174.4375 176.753906 "/><path style=" stroke:none;fill-rule:nonzero;fill:rgb(78.819275%,9.408569%,29.019165%);fill-opacity:1;" d="M 189.597656 209.429688 C 189.597656 211.855469 187.621094 213.828125 185.195312 213.828125 L 176.066406 213.828125 C 173.636719 213.828125 171.660156 211.855469 171.660156 209.429688 L 171.660156 200.8125 C 171.660156 198.386719 173.636719 196.410156 176.066406 196.410156 L 185.195312 196.410156 C 187.621094 196.410156 189.597656 198.386719 189.597656 200.8125 Z M 185.195312 192.660156 L 176.066406 192.660156 C 171.566406 192.660156 167.910156 196.316406 167.910156 200.8125 L 167.910156 209.429688 C 167.910156 213.921875 171.566406 217.578125 176.066406 217.578125 L 185.195312 217.578125 C 189.6875 217.578125 193.347656 213.921875 193.347656 209.429688 L 193.347656 200.8125 C 193.347656 196.316406 189.6875 192.660156 185.195312 192.660156 "/><path style=" stroke:none;fill-rule:nonzero;fill:rgb(78.819275%,9.408569%,29.019165%);fill-opacity:1;" d="M 174.4375 203.96875 L 186.824219 203.96875 L 186.824219 200.21875 L 174.4375 200.21875 L 174.4375 203.96875 "/><path style=" stroke:none;fill-rule:nonzero;fill:rgb(78.819275%,9.408569%,29.019165%);fill-opacity:1;" d="M 174.4375 210.019531 L 186.824219 210.019531 L 186.824219 206.269531 L 174.4375 206.269531 L 174.4375 210.019531 "/><path style=" stroke:none;fill-rule:nonzero;fill:rgb(78.819275%,9.408569%,29.019165%);fill-opacity:1;" d="M 139.136719 143.351562 C 139.136719 140.921875 141.109375 138.949219 143.535156 138.949219 L 157.4375 138.949219 L 149.890625 146.320312 L 152.511719 149.003906 L 162.804688 138.949219 L 186.742188 138.949219 C 189.167969 138.949219 191.148438 140.921875 191.148438 143.351562 L 191.148438 151.96875 C 191.148438 154.398438 189.167969 156.367188 186.742188 156.367188 L 158.902344 156.367188 L 163.351562 152.027344 L 160.734375 149.34375 L 153.535156 156.367188 L 143.535156 156.367188 C 141.109375 156.367188 139.136719 154.398438 139.136719 151.96875 Z M 143.535156 160.117188 L 186.742188 160.117188 C 191.238281 160.117188 194.898438 156.460938 194.898438 151.96875 L 194.898438 143.351562 C 194.898438 138.859375 191.238281 135.199219 186.742188 135.199219 L 143.535156 135.199219 C 139.042969 135.199219 135.386719 138.859375 135.386719 143.351562 L 135.386719 151.96875 C 135.386719 156.460938 139.042969 160.117188 143.535156 160.117188 "/><path style=" stroke:none;fill-rule:nonzero;fill:rgb(78.819275%,9.408569%,29.019165%);fill-opacity:1;" d="M 181.9375 142.957031 L 179.320312 140.269531 L 168.476562 150.855469 L 171.097656 153.539062 L 181.9375 142.957031 "/><g clip-rule="nonzero"><path style=" stroke:none;fill-rule:nonzero;fill:rgb(78.819275%,9.408569%,29.019165%);fill-opacity:1;" d="M 219.835938 134.460938 L 220.703125 135.960938 L 223.949219 134.085938 L 223.070312 132.566406 C 224.3125 132.042969 225.636719 131.691406 227.015625 131.523438 L 227.015625 133.265625 L 230.765625 133.265625 L 230.765625 131.523438 C 232.144531 131.691406 233.46875 132.042969 234.707031 132.566406 L 233.828125 134.085938 L 237.074219 135.960938 L 237.941406 134.460938 C 239.03125 135.285156 239.996094 136.25 240.820312 137.335938 L 239.320312 138.203125 L 241.195312 141.449219 L 242.714844 140.574219 C 243.238281 141.8125 243.589844 143.136719 243.757812 144.515625 L 242.015625 144.515625 L 242.015625 148.265625 L 243.757812 148.265625 C 243.589844 149.644531 243.238281 150.96875 242.714844 152.207031 L 241.195312 151.328125 L 239.320312 154.574219 L 240.820312 155.441406 C 239.996094 156.53125 239.03125 157.496094 237.941406 158.320312 L 237.074219 156.820312 L 233.828125 158.695312 L 234.707031 160.214844 C 233.46875 160.738281 232.144531 161.089844 230.765625 161.261719 L 230.765625 159.515625 L 227.015625 159.515625 L 227.015625 161.261719 C 225.636719 161.089844 224.3125 160.738281 223.070312 160.214844 L 223.949219 158.695312 L 220.703125 156.820312 L 219.835938 158.320312 C 218.75 157.496094 217.785156 156.53125 216.960938 155.441406 L 218.460938 154.574219 L 216.585938 151.328125 L 215.066406 152.207031 C 214.539062 150.96875 214.191406 149.644531 214.023438 148.265625 L 215.765625 148.265625 L 215.765625 144.515625 L 214.023438 144.515625 C 214.191406 143.136719 214.539062 141.8125 215.066406 140.574219 L 216.585938 141.449219 L 218.460938 138.203125 L 216.960938 137.335938 C 217.785156 136.25 218.75 135.285156 219.835938 134.460938 Z M 228.890625 165.140625 C 239.230469 165.140625 247.640625 156.730469 247.640625 146.390625 C 247.640625 136.050781 239.230469 127.640625 228.890625 127.640625 C 218.550781 127.640625 210.140625 136.050781 210.140625 146.390625 C 210.140625 156.730469 218.550781 165.140625 228.890625 165.140625 "/></g><path style=" stroke:none;fill-rule:nonzero;fill:rgb(78.819275%,9.408569%,29.019165%);fill-opacity:1;" d="M 228.890625 151.269531 C 228.0625 151.269531 227.390625 150.589844 227.390625 149.765625 L 223.640625 149.765625 C 223.640625 151.996094 225.046875 153.894531 227.015625 154.65625 L 227.015625 156.515625 L 230.765625 156.515625 L 230.765625 154.65625 C 232.734375 153.894531 234.140625 151.996094 234.140625 149.765625 C 234.140625 146.882812 231.816406 145.742188 230.125 144.90625 L 229.3125 144.507812 C 227.75 143.738281 227.390625 143.460938 227.390625 143.015625 C 227.390625 142.1875 228.0625 141.515625 228.890625 141.515625 C 229.71875 141.515625 230.390625 142.1875 230.390625 143.015625 L 234.140625 143.015625 C 234.140625 140.78125 232.734375 138.882812 230.765625 138.128906 L 230.765625 136.269531 L 227.015625 136.269531 L 227.015625 138.128906 C 225.046875 138.882812 223.640625 140.78125 223.640625 143.015625 C 223.640625 145.898438 225.964844 147.039062 227.65625 147.871094 L 228.46875 148.273438 C 230.03125 149.042969 230.390625 149.320312 230.390625 149.765625 C 230.390625 150.589844 229.71875 151.269531 228.890625 151.269531 "/><path style=" stroke:none;fill-rule:nonzero;fill:rgb(78.819275%,9.408569%,29.019165%);fill-opacity:1;" d="M 221.390625 144.515625 L 219.515625 144.515625 L 219.515625 148.265625 L 221.390625 148.265625 L 221.390625 144.515625 "/><path style=" stroke:none;fill-rule:nonzero;fill:rgb(78.819275%,9.408569%,29.019165%);fill-opacity:1;" d="M 238.265625 144.515625 L 236.390625 144.515625 L 236.390625 148.265625 L 238.265625 148.265625 L 238.265625 144.515625 "/><g clip-rule="nonzero"><path style=" stroke:none;fill-rule:nonzero;fill:rgb(78.819275%,9.408569%,29.019165%);fill-opacity:1;" d="M 237.941406 199.570312 L 237.074219 198.070312 L 233.828125 199.945312 L 234.707031 201.464844 C 233.46875 201.988281 232.144531 202.335938 230.765625 202.511719 L 230.765625 200.765625 L 227.015625 200.765625 L 227.015625 202.511719 C 225.636719 202.335938 224.3125 201.988281 223.070312 201.464844 L 223.949219 199.945312 L 220.703125 198.070312 L 219.835938 199.570312 C 218.75 198.746094 217.785156 197.78125 216.960938 196.691406 L 218.460938 195.824219 L 216.585938 192.578125 L 215.066406 193.457031 C 214.539062 192.21875 214.191406 190.894531 214.023438 189.515625 L 215.765625 189.515625 L 215.765625 185.765625 L 214.023438 185.765625 C 214.191406 184.386719 214.539062 183.0625 215.066406 181.824219 L 216.585938 182.699219 L 218.460938 179.453125 L 216.960938 178.585938 C 217.785156 177.5 218.75 176.535156 219.835938 175.710938 L 220.703125 177.210938 L 223.949219 175.335938 L 223.070312 173.816406 C 224.3125 173.292969 225.636719 172.945312 227.015625 172.769531 L 227.015625 174.515625 L 230.765625 174.515625 L 230.765625 172.769531 C 232.144531 172.945312 233.46875 173.292969 234.707031 173.816406 L 233.828125 175.335938 L 237.074219 177.210938 L 237.941406 175.710938 C 239.03125 176.535156 239.996094 177.5 240.820312 178.585938 L 239.320312 179.453125 L 241.195312 182.699219 L 242.714844 181.824219 C 243.238281 183.0625 243.589844 184.386719 243.757812 185.765625 L 242.015625 185.765625 L 242.015625 189.515625 L 243.757812 189.515625 C 243.589844 190.894531 243.238281 192.21875 242.714844 193.457031 L 241.195312 192.578125 L 239.320312 195.824219 L 240.820312 196.691406 C 239.996094 197.78125 239.03125 198.746094 237.941406 199.570312 Z M 228.890625 168.890625 C 218.550781 168.890625 210.140625 177.300781 210.140625 187.640625 C 210.140625 197.980469 218.550781 206.390625 228.890625 206.390625 C 239.230469 206.390625 247.640625 197.980469 247.640625 187.640625 C 247.640625 177.300781 239.230469 168.890625 228.890625 168.890625 "/></g><path style=" stroke:none;fill-rule:nonzero;fill:rgb(78.819275%,9.408569%,29.019165%);fill-opacity:1;" d="M 228.890625 182.765625 C 229.71875 182.765625 230.390625 183.4375 230.390625 184.265625 L 234.140625 184.265625 C 234.140625 182.03125 232.734375 180.132812 230.765625 179.378906 L 230.765625 177.515625 L 227.015625 177.515625 L 227.015625 179.378906 C 225.046875 180.132812 223.640625 182.03125 223.640625 184.265625 C 223.640625 187.148438 225.964844 188.289062 227.65625 189.121094 L 228.46875 189.523438 C 230.03125 190.292969 230.390625 190.570312 230.390625 191.015625 C 230.390625 191.839844 229.71875 192.515625 228.890625 192.515625 C 228.0625 192.515625 227.390625 191.839844 227.390625 191.015625 L 223.640625 191.015625 C 223.640625 193.246094 225.046875 195.144531 227.015625 195.90625 L 227.015625 197.765625 L 230.765625 197.765625 L 230.765625 195.90625 C 232.734375 195.144531 234.140625 193.246094 234.140625 191.015625 C 234.140625 188.132812 231.816406 186.992188 230.125 186.15625 L 229.3125 185.757812 C 227.75 184.988281 227.390625 184.710938 227.390625 184.265625 C 227.390625 183.4375 228.0625 182.765625 228.890625 182.765625 "/><path style=" stroke:none;fill-rule:nonzero;fill:rgb(78.819275%,9.408569%,29.019165%);fill-opacity:1;" d="M 219.515625 189.515625 L 221.390625 189.515625 L 221.390625 185.765625 L 219.515625 185.765625 L 219.515625 189.515625 "/><path style=" stroke:none;fill-rule:nonzero;fill:rgb(78.819275%,9.408569%,29.019165%);fill-opacity:1;" d="M 236.390625 189.515625 L 238.265625 189.515625 L 238.265625 185.765625 L 236.390625 185.765625 L 236.390625 189.515625 "/><g clip-rule="nonzero"><path style=" stroke:none;fill-rule:nonzero;fill:rgb(78.819275%,9.408569%,29.019165%);fill-opacity:1;" d="M 237.941406 240.820312 L 237.074219 239.320312 L 233.828125 241.195312 L 234.707031 242.714844 C 233.46875 243.238281 232.144531 243.589844 230.765625 243.757812 L 230.765625 242.015625 L 227.015625 242.015625 L 227.015625 243.757812 C 225.636719 243.589844 224.3125 243.238281 223.070312 242.714844 L 223.949219 241.195312 L 220.703125 239.320312 L 219.835938 240.820312 C 218.75 239.996094 217.785156 239.03125 216.960938 237.941406 L 218.460938 237.074219 L 216.585938 233.828125 L 215.066406 234.707031 C 214.539062 233.46875 214.191406 232.144531 214.023438 230.765625 L 215.765625 230.765625 L 215.765625 227.015625 L 214.023438 227.015625 C 214.191406 225.636719 214.539062 224.3125 215.066406 223.074219 L 216.585938 223.949219 L 218.460938 220.703125 L 216.960938 219.835938 C 217.785156 218.75 218.75 217.785156 219.835938 216.960938 L 220.703125 218.460938 L 223.949219 216.585938 L 223.070312 215.066406 C 224.3125 214.539062 225.636719 214.191406 227.015625 214.019531 L 227.015625 215.765625 L 230.765625 215.765625 L 230.765625 214.019531 C 232.144531 214.191406 233.46875 214.539062 234.707031 215.066406 L 233.828125 216.585938 L 237.074219 218.460938 L 237.941406 216.960938 C 239.03125 217.785156 239.996094 218.75 240.820312 219.835938 L 239.320312 220.703125 L 241.195312 223.949219 L 242.714844 223.074219 C 243.238281 224.3125 243.589844 225.636719 243.757812 227.015625 L 242.015625 227.015625 L 242.015625 230.765625 L 243.757812 230.765625 C 243.589844 232.144531 243.238281 233.46875 242.714844 234.707031 L 241.195312 233.828125 L 239.320312 237.074219 L 240.820312 237.941406 C 239.996094 239.03125 239.03125 239.996094 237.941406 240.820312 Z M 228.890625 210.140625 C 218.550781 210.140625 210.140625 218.550781 210.140625 228.890625 C 210.140625 239.230469 218.550781 247.640625 228.890625 247.640625 C 239.230469 247.640625 247.640625 239.230469 247.640625 228.890625 C 247.640625 218.550781 239.230469 210.140625 228.890625 210.140625 "/></g><path style=" stroke:none;fill-rule:nonzero;fill:rgb(78.819275%,9.408569%,29.019165%);fill-opacity:1;" d="M 228.890625 224.015625 C 229.71875 224.015625 230.390625 224.6875 230.390625 225.515625 L 234.140625 225.515625 C 234.140625 223.28125 232.734375 221.382812 230.765625 220.628906 L 230.765625 218.769531 L 227.015625 218.769531 L 227.015625 220.628906 C 225.046875 221.382812 223.640625 223.28125 223.640625 225.515625 C 223.640625 228.398438 225.964844 229.539062 227.65625 230.371094 L 228.46875 230.773438 C 230.03125 231.542969 230.390625 231.820312 230.390625 232.265625 C 230.390625 233.089844 229.71875 233.769531 228.890625 233.769531 C 228.0625 233.769531 227.390625 233.089844 227.390625 232.265625 L 223.640625 232.265625 C 223.640625 234.496094 225.046875 236.394531 227.015625 237.15625 L 227.015625 239.015625 L 230.765625 239.015625 L 230.765625 237.15625 C 232.734375 236.394531 234.140625 234.496094 234.140625 232.265625 C 234.140625 229.382812 231.816406 228.242188 230.125 227.40625 L 229.3125 227.007812 C 227.75 226.238281 227.390625 225.960938 227.390625 225.515625 C 227.390625 224.6875 228.0625 224.015625 228.890625 224.015625 "/><path style=" stroke:none;fill-rule:nonzero;fill:rgb(78.819275%,9.408569%,29.019165%);fill-opacity:1;" d="M 219.515625 230.765625 L 221.390625 230.765625 L 221.390625 227.015625 L 219.515625 227.015625 L 219.515625 230.765625 "/><path style=" stroke:none;fill-rule:nonzero;fill:rgb(78.819275%,9.408569%,29.019165%);fill-opacity:1;" d="M 236.390625 230.765625 L 238.265625 230.765625 L 238.265625 227.015625 L 236.390625 227.015625 L 236.390625 230.765625 "/><g clip-rule="nonzero"><path style=" stroke:none;fill-rule:nonzero;fill:rgb(78.819275%,9.408569%,29.019165%);fill-opacity:1;" d="M 206.390625 242.015625 C 206.390625 243.121094 205.730469 243.890625 205.140625 243.890625 L 200.765625 243.890625 L 200.765625 236.390625 L 205.140625 236.390625 C 205.730469 236.390625 206.390625 237.160156 206.390625 238.265625 Z M 152.015625 243.890625 L 152.015625 236.390625 L 197.015625 236.390625 L 197.015625 243.890625 Z M 146.167969 243.890625 L 137.832031 240.140625 L 146.167969 236.390625 L 148.265625 236.390625 L 148.265625 243.890625 Z M 210.140625 242.015625 L 210.140625 238.265625 C 210.140625 235.164062 207.894531 232.640625 205.140625 232.640625 L 200.765625 232.640625 L 200.765625 232.015625 C 200.765625 229.257812 198.519531 227.015625 195.765625 227.015625 L 170.765625 227.015625 L 170.765625 230.765625 L 195.765625 230.765625 C 196.457031 230.765625 197.015625 231.324219 197.015625 232.015625 L 197.015625 232.640625 L 145.363281 232.640625 L 132.863281 238.265625 L 127.640625 238.265625 L 127.640625 242.015625 L 132.863281 242.015625 L 145.363281 247.640625 L 205.140625 247.640625 C 207.894531 247.640625 210.140625 245.117188 210.140625 242.015625 "/></g><path style=" stroke:none;fill-rule:nonzero;fill:rgb(78.819275%,9.408569%,29.019165%);fill-opacity:1;" d="M 153.890625 242.015625 L 195.140625 242.015625 L 195.140625 238.265625 L 153.890625 238.265625 L 153.890625 242.015625 "/></g></svg>